<?xml version="1.0"?>
<svg xmlns="http://www.w3.org/2000/svg" xmlns:xlink="http://www.w3.org/1999/xlink" version="1.1" id="Capa_1" x="0px" y="0px" viewBox="0 0 472.568 472.568" style="enable-background:new 0 0 472.568 472.568;" xml:space="preserve" width="512px" height="512px" class=""><g><g>
	<g>
		<path d="M348.284,320.568h-64v-44.936c7.001-4.028,13.467-8.92,19.248-14.56c14.462-14.149,24.035-32.541,27.328-52.504h5.424    c15.464,0,28-12.536,28-28s-12.536-28-28-28h-4v-16h8c4.418,0,8-3.582,8-8V112c0-61.856-50.144-112-112-112s-112,50.144-112,112    c-0.002,0.518,0.049,1.036,0.152,1.544l7.776,39.432c-15.27,2.24-25.832,16.435-23.591,31.705    c2.014,13.725,13.791,23.895,27.663,23.887h5.4c4.55,28.342,21.682,53.102,46.6,67.352v44.648h-64    c-30.913,0.035-55.965,25.087-56,56v88c0,4.418,3.582,8,8,8h320c4.418,0,8-3.582,8-8v-88    C404.249,345.655,379.197,320.603,348.284,320.568z M336.284,168.568c6.627,0,12,5.373,12,12c0,6.627-5.373,12-12,12h-4v-24    H336.284z M140.284,192.568h-4c-6.627,0-12-5.373-12-12c0-6.627,5.373-12,12-12h4V192.568z M140.284,111.232    c0.473-39.39,24.825-74.544,61.536-88.832c49.485-19.034,105.03,5.651,124.064,55.136c4.23,10.998,6.4,22.68,6.4,34.464v8.4    c-40.056-8.664-147.752-54.712-148.848-55.2c-4.06-1.742-8.764,0.137-10.506,4.197c-0.027,0.062-0.052,0.124-0.078,0.187    l-27.312,68.28L140.284,111.232z M156.284,192.568v-38.456l28.392-70.992c22.96,9.68,91.792,38.24,131.608,49.664v59.784    c0,44.183-35.817,80-80,80C192.101,272.568,156.284,236.751,156.284,192.568z M268.284,283.016v53.552c0,17.673-14.327,32-32,32    c-17.673,0-32-14.327-32-32v-53.416c9.717,3.392,19.91,5.22,30.2,5.416h1.8C247.189,288.551,258.011,286.674,268.284,283.016z     M388.284,456.568h-304v-80c0.026-22.08,17.92-39.974,40-40h64c0,26.51,21.49,48,48,48c26.51,0,48-21.49,48-48h64    c22.08,0.026,39.974,17.92,40,40V456.568z" data-original="#000000" class="active-path" data-old_color="#000000" fill="#FFFFFF"/>
	</g>
</g><g>
	<g>
		<path d="M196.284,170.568c-7.732,0-14,6.268-14,14s6.268,14,14,14s14-6.268,14-14C210.275,176.84,204.012,170.577,196.284,170.568    z M194.284,184.568c0-1.105,0.895-2,2-2s2,0.895,2,2C198.284,186.768,194.284,186.768,194.284,184.568z" data-original="#000000" class="active-path" data-old_color="#000000" fill="#FFFFFF"/>
	</g>
</g><g>
	<g>
		<path d="M276.284,170.568c-7.732,0-14,6.268-14,14c0.009,7.728,6.272,13.991,14,14c7.732,0,14-6.268,14-14    S284.016,170.568,276.284,170.568z M274.284,184.568c0-1.105,0.895-2,2-2c1.105,0,2,0.895,2,2    C278.284,186.768,274.284,186.768,274.284,184.568z" data-original="#000000" class="active-path" data-old_color="#000000" fill="#FFFFFF"/>
	</g>
</g><g>
	<g>
		<path d="M254.284,224.568c0,9.941-8.059,18-18,18c-9.941,0-18-8.059-18-18h-12c0,16.569,13.431,30,30,30s30-13.431,30-30H254.284z    " data-original="#000000" class="active-path" data-old_color="#000000" fill="#FFFFFF"/>
	</g>
</g></g> </svg>
