<?xml version="1.0"?>
<svg xmlns="http://www.w3.org/2000/svg" xmlns:xlink="http://www.w3.org/1999/xlink" version="1.1" id="Capa_1" x="0px" y="0px" viewBox="0 0 490 490" style="enable-background:new 0 0 490 490;" xml:space="preserve" width="512px" height="512px" class=""><g><g>
	<path d="M245,367.5c-52.427,0-95.09-42.663-95.09-95.09h-30.625c0,69.325,56.39,125.715,125.715,125.715   s125.715-56.39,125.715-125.715H340.09C340.09,324.837,297.427,367.5,245,367.5z" data-original="#000000" class="active-path" data-old_color="#000000" fill="#FFFFFF"/>
	<circle cx="157.651" cy="175.289" r="42.642" data-original="#000000" class="active-path" data-old_color="#000000" fill="#FFFFFF"/>
	<circle cx="332.349" cy="175.289" r="42.642" data-original="#000000" class="active-path" data-old_color="#000000" fill="#FFFFFF"/>
	<path d="M420.914,0H69.086C30.999,0,0,30.999,0,69.086v351.829C0,459.001,30.999,490,69.086,490h351.829   C459.001,490,490,459.001,490,420.914V69.086C490,30.999,459.001,0,420.914,0z M459.375,420.914   c0,21.204-17.257,38.461-38.461,38.461H69.086c-21.204,0-38.461-17.257-38.461-38.461V69.086c0-21.204,17.257-38.461,38.461-38.461   h351.829c21.204,0,38.461,17.257,38.461,38.461V420.914z" data-original="#000000" class="active-path" data-old_color="#000000" fill="#FFFFFF"/>
</g></g> </svg>
