<?xml version="1.0"?>
<svg xmlns="http://www.w3.org/2000/svg" xmlns:xlink="http://www.w3.org/1999/xlink" version="1.1" id="Capa_1" x="0px" y="0px" viewBox="0 0 480 480" style="enable-background:new 0 0 480 480;" xml:space="preserve" width="512px" height="512px" class=""><g><g>
	<g>
		<path d="M240,0c-75.111,0-136,60.889-136,136v184h16V136c0-66.274,53.726-120,120-120s120,53.726,120,120v184h16V136    C376,60.889,315.111,0,240,0z" data-original="#000000" class="active-path" data-old_color="#000000" fill="#FFFFFF"/>
	</g>
</g><g>
	<g>
		<path d="M352,328h-64v-44.992c29.662-17.125,47.953-48.757,48-83.008v-40h8v-16h-23.016c-11.094-0.014-20.738-7.616-23.344-18.4    l-17.944-63.76c-0.968-3.451-4.112-5.837-7.696-5.84c-3.575-0.001-6.716,2.37-7.696,5.808l-16.488,57.952    c-3.558,14.235-16.343,24.227-31.016,24.24H136v16h8v40c0.047,34.251,18.338,65.883,48,83.008V328h-64    c-30.913,0.035-55.965,25.087-56,56v88c0,4.418,3.582,8,8,8h320c4.418,0,8-3.582,8-8v-88C407.965,353.087,382.913,328.035,352,328    z M160,200v-40h56.8c21.946,0.052,41.115-14.83,46.504-36.104l8.688-30.52l10.216,36.32c4.352,17.437,19.825,29.811,37.792,30.224    V200c0,44.183-35.817,80-80,80C195.817,280,160,244.183,160,200z M272,290.4v42.288l-32,32l-32-32V290.4    c10.268,3.683,21.092,5.577,32,5.6C250.908,295.977,261.732,294.083,272,290.4z M392,464H88v-80c0.026-22.08,17.92-39.974,40-40    h68.688l37.656,37.656c3.124,3.123,8.188,3.123,11.312,0L283.312,344H352c22.08,0.026,39.974,17.92,40,40V464z" data-original="#000000" class="active-path" data-old_color="#000000" fill="#FFFFFF"/>
	</g>
</g><g>
	<g>
		<path d="M200,178c-7.732,0-14,6.268-14,14s6.268,14,14,14s14-6.268,14-14C213.991,184.272,207.728,178.009,200,178z M198,192    c0-1.105,0.895-2,2-2s2,0.895,2,2C202,194.2,198,194.2,198,192z" data-original="#000000" class="active-path" data-old_color="#000000" fill="#FFFFFF"/>
	</g>
</g><g>
	<g>
		<path d="M280,178c-7.732,0-14,6.268-14,14c0.009,7.728,6.272,13.991,14,14c7.732,0,14-6.268,14-14S287.732,178,280,178z M278,192    c0-1.105,0.895-2,2-2c1.105,0,2,0.895,2,2C282,194.2,278,194.2,278,192z" data-original="#000000" class="active-path" data-old_color="#000000" fill="#FFFFFF"/>
	</g>
</g><g>
	<g>
		<path d="M258,232c0,9.941-8.059,18-18,18c-9.941,0-18-8.059-18-18h-12c0,16.569,13.431,30,30,30s30-13.431,30-30H258z" data-original="#000000" class="active-path" data-old_color="#000000" fill="#FFFFFF"/>
	</g>
</g></g> </svg>
